<svg xmlns="http://www.w3.org/2000/svg" xmlns:xlink="http://www.w3.org/1999/xlink" width="880" zoomAndPan="magnify" viewBox="0 0 660 153.000002" height="204" preserveAspectRatio="xMidYMid meet" version="1.0"><defs><g/><clipPath id="cb4fa87a73"><path d="M 17.34375 26.117188 L 151 26.117188 L 151 123 L 17.34375 123 Z M 17.34375 26.117188 " clip-rule="nonzero"/></clipPath></defs><g fill="#ffb200" fill-opacity="1"><g transform="translate(169.955423, 110.840198)"><g><path d="M 7.515625 0 L 7.515625 -65.125 L 51.5 -65.125 L 51.5 -52.8125 L 22.171875 -52.8125 L 22.171875 -40.03125 L 48.203125 -40.03125 L 48.203125 -28 L 22.171875 -28 L 22.171875 -12.3125 L 53.65625 -12.3125 L 53.65625 0 Z M 7.515625 0 "/></g></g></g><g fill="#ffb200" fill-opacity="1"><g transform="translate(226.889068, 110.840198)"><g><path d="M 2.34375 -34.390625 L 29.59375 -34.390625 L 29.59375 -21.703125 L 2.34375 -21.703125 Z M 2.34375 -34.390625 "/></g></g></g><g fill="#ffb200" fill-opacity="1"><g transform="translate(258.832032, 110.840198)"><g><path d="M 51.21875 -58.171875 C 51.96875 -55.597656 52.796875 -52.695312 53.703125 -49.46875 C 54.609375 -46.25 55.578125 -42.914062 56.609375 -39.46875 C 57.648438 -36.019531 58.703125 -32.570312 59.765625 -29.125 C 60.828125 -25.6875 61.859375 -22.492188 62.859375 -19.546875 C 63.679688 -22.742188 64.515625 -26.21875 65.359375 -29.96875 C 66.203125 -33.726562 67 -37.613281 67.75 -41.625 C 68.5 -45.632812 69.234375 -49.628906 69.953125 -53.609375 C 70.679688 -57.585938 71.359375 -61.425781 71.984375 -65.125 L 87.203125 -65.125 C 85.015625 -54.21875 82.492188 -43.15625 79.640625 -31.9375 C 76.785156 -20.726562 73.695312 -10.082031 70.375 0 L 56.9375 0 C 54.75 -6.007812 52.617188 -12.316406 50.546875 -18.921875 C 48.484375 -25.535156 46.453125 -32.164062 44.453125 -38.8125 C 42.441406 -32.164062 40.429688 -25.535156 38.421875 -18.921875 C 36.421875 -12.316406 34.328125 -6.007812 32.140625 0 L 18.703125 0 C 15.378906 -10.082031 12.289062 -20.726562 9.4375 -31.9375 C 6.59375 -43.15625 4.070312 -54.21875 1.875 -65.125 L 17.765625 -65.125 C 18.390625 -61.425781 19.078125 -57.585938 19.828125 -53.609375 C 20.578125 -49.628906 21.359375 -45.632812 22.171875 -41.625 C 22.984375 -37.613281 23.8125 -33.726562 24.65625 -29.96875 C 25.507812 -26.21875 26.375 -22.742188 27.25 -19.546875 C 28.375 -22.617188 29.46875 -25.875 30.53125 -29.3125 C 31.601562 -32.757812 32.640625 -36.207031 33.640625 -39.65625 C 34.640625 -43.101562 35.5625 -46.421875 36.40625 -49.609375 C 37.257812 -52.804688 38.03125 -55.660156 38.71875 -58.171875 Z M 51.21875 -58.171875 "/></g></g></g><g fill="#ffb200" fill-opacity="1"><g transform="translate(347.89655, 110.840198)"><g><path d="M 51.125 0 C 50.425781 -2.257812 49.65625 -4.578125 48.8125 -6.953125 C 47.96875 -9.335938 47.140625 -11.71875 46.328125 -14.09375 L 20.953125 -14.09375 C 20.140625 -11.71875 19.3125 -9.335938 18.46875 -6.953125 C 17.625 -4.578125 16.851562 -2.257812 16.15625 0 L 0.9375 0 C 3.382812 -7.019531 5.703125 -13.503906 7.890625 -19.453125 C 10.085938 -25.398438 12.234375 -31.003906 14.328125 -36.265625 C 16.429688 -41.535156 18.5 -46.535156 20.53125 -51.265625 C 22.570312 -55.992188 24.6875 -60.613281 26.875 -65.125 L 40.875 -65.125 C 43.007812 -60.613281 45.109375 -55.992188 47.171875 -51.265625 C 49.234375 -46.535156 51.3125 -41.535156 53.40625 -36.265625 C 55.507812 -31.003906 57.65625 -25.398438 59.84375 -19.453125 C 62.039062 -13.503906 64.363281 -7.019531 66.8125 0 Z M 33.546875 -50.375 C 33.234375 -49.425781 32.765625 -48.140625 32.140625 -46.515625 C 31.515625 -44.890625 30.789062 -43.007812 29.96875 -40.875 C 29.15625 -38.75 28.265625 -36.398438 27.296875 -33.828125 C 26.328125 -31.253906 25.34375 -28.5625 24.34375 -25.75 L 42.84375 -25.75 C 41.84375 -28.5625 40.875 -31.253906 39.9375 -33.828125 C 39 -36.398438 38.101562 -38.75 37.25 -40.875 C 36.40625 -43.007812 35.671875 -44.890625 35.046875 -46.515625 C 34.421875 -48.140625 33.921875 -49.425781 33.546875 -50.375 Z M 33.546875 -50.375 "/></g></g></g><g fill="#ffb200" fill-opacity="1"><g transform="translate(415.634443, 110.840198)"><g><path d="M 51.03125 -12.59375 L 51.03125 0 L 7.515625 0 L 7.515625 -65.125 L 22.171875 -65.125 L 22.171875 -12.59375 Z M 51.03125 -12.59375 "/></g></g></g><g fill="#ffb200" fill-opacity="1"><g transform="translate(468.528266, 110.840198)"><g><path d="M 51.03125 -12.59375 L 51.03125 0 L 7.515625 0 L 7.515625 -65.125 L 22.171875 -65.125 L 22.171875 -12.59375 Z M 51.03125 -12.59375 "/></g></g></g><g fill="#ffb200" fill-opacity="1"><g transform="translate(521.422088, 110.840198)"><g><path d="M 7.515625 0 L 7.515625 -65.125 L 51.5 -65.125 L 51.5 -52.8125 L 22.171875 -52.8125 L 22.171875 -40.03125 L 48.203125 -40.03125 L 48.203125 -28 L 22.171875 -28 L 22.171875 -12.3125 L 53.65625 -12.3125 L 53.65625 0 Z M 7.515625 0 "/></g></g></g><g fill="#ffb200" fill-opacity="1"><g transform="translate(578.355751, 110.840198)"><g><path d="M 55.8125 -65.125 L 55.8125 -52.625 L 36.171875 -52.625 L 36.171875 0 L 21.515625 0 L 21.515625 -52.625 L 1.875 -52.625 L 1.875 -65.125 Z M 55.8125 -65.125 "/></g></g></g><g clip-path="url(#cb4fa87a73)"><path fill="#ffb200" d="M 62 65.976562 L 142.65625 65.976562 C 142.941406 65.976562 143.191406 66.175781 143.25 66.457031 C 145.128906 75.8125 143.699219 85.519531 139.21875 93.949219 C 139.121094 94.148438 138.910156 94.265625 138.683594 94.265625 L 65.984375 94.265625 C 65.761719 94.265625 65.546875 94.148438 65.441406 93.949219 C 60.960938 85.519531 59.527344 75.8125 61.410156 66.457031 C 61.46875 66.175781 61.714844 65.976562 62 65.976562 Z M 103.304688 26.429688 C 84.03125 26.054688 66.351562 37.078125 58.324219 54.507812 C 58.179688 54.8125 57.8125 54.941406 57.519531 54.8125 C 57.375 54.753906 57.269531 54.648438 57.210938 54.519531 L 57.210938 54.53125 C 54.019531 48.03125 47.714844 43.613281 40.492188 42.789062 C 40.160156 42.742188 39.863281 42.988281 39.828125 43.316406 C 39.816406 43.386719 39.816406 43.457031 39.839844 43.527344 C 41.164062 49.078125 44.0625 54.117188 48.1875 58.066406 C 48.4375 58.300781 48.449219 58.679688 48.210938 58.925781 C 48.070312 59.078125 47.859375 59.148438 47.644531 59.101562 C 37.417969 56.867188 26.726562 58.726562 17.859375 64.261719 C 17.574219 64.4375 17.492188 64.8125 17.667969 65.09375 C 17.714844 65.175781 17.785156 65.246094 17.859375 65.292969 C 28.488281 71.933594 41.636719 73.214844 53.367188 68.761719 C 53.675781 68.632812 54.03125 68.796875 54.160156 69.101562 C 54.195312 69.195312 54.207031 69.289062 54.195312 69.398438 C 51.324219 95.828125 70.550781 119.554688 97.144531 122.414062 C 123.738281 125.269531 147.625 106.148438 150.484375 79.726562 C 153.359375 53.296875 134.132812 29.554688 107.539062 26.699219 C 106.132812 26.546875 104.722656 26.464844 103.316406 26.441406 L 103.304688 26.429688 " fill-opacity="1" fill-rule="nonzero"/></g><path fill="#ffb200" d="M 90.167969 80.113281 C 90.191406 76.90625 87.601562 74.285156 84.359375 74.261719 C 81.132812 74.238281 78.496094 76.824219 78.472656 80.03125 C 78.472656 80.066406 78.472656 80.089844 78.472656 80.113281 C 78.449219 83.324219 81.050781 85.945312 84.277344 85.96875 C 87.496094 86.003906 90.132812 83.417969 90.167969 80.207031 C 90.167969 80.183594 90.167969 80.148438 90.167969 80.113281 " fill-opacity="1" fill-rule="nonzero"/><path fill="#ffb200" d="M 126.1875 80.113281 C 126.210938 76.90625 123.609375 74.285156 120.378906 74.273438 C 117.152344 74.238281 114.515625 76.824219 114.492188 80.03125 C 114.492188 80.066406 114.492188 80.089844 114.492188 80.113281 C 114.46875 83.324219 117.058594 85.945312 120.285156 85.96875 C 123.511719 86.003906 126.152344 83.417969 126.1875 80.207031 C 126.1875 80.183594 126.1875 80.148438 126.1875 80.113281 " fill-opacity="1" fill-rule="nonzero"/></svg>